<?xml version="1.0" encoding="UTF-8" standalone="no"?>
<svg width="128px" height="128px" viewBox="0 0 128 128" version="1.1" xmlns="http://www.w3.org/2000/svg" xmlns:xlink="http://www.w3.org/1999/xlink">
    <!-- Generator: Sketch 3.6.1 (26313) - http://www.bohemiancoding.com/sketch -->
    <title>Untitled</title>
    <desc>Created with Sketch.</desc>
    <defs>
        <rect id="path-1" x="0" y="0" width="128" height="128"></rect>
    </defs>
    <g id="Page-1" stroke="none" stroke-width="1" fill="none" fill-rule="evenodd">
        <g id="icon">
            <g id="graph-dark-+-graph-Mask">
                <mask id="mask-2" fill="white">
                    <use xlink:href="#path-1"></use>
                </mask>
                <use id="Mask" fill="#FF6437" xlink:href="#path-1"></use>
                <g id="graph-dark" mask="url(#mask-2)" fill="#E25B34">
                    <g transform="translate(-1.382812, 32.773438)">
                        <path d="M61.8376588,23.433993 L0.43531503,56.465243 L2.33031097,59.9878826 L63.7326548,26.9566326 L61.8376588,23.433993 L61.8376588,23.433993 Z" id="Line-Copy-4"></path>
                        <path d="M72.252371,27.4080162 L96.3500272,41.9392662 L98.4155992,38.5138594 L74.317943,23.9826094 L72.252371,27.4080162 L72.252371,27.4080162 Z" id="Line-Copy-5"></path>
                        <path d="M141.910158,0.873312172 L107.910158,37.8733122 L110.855468,40.5798134 L144.855468,3.57981333 L141.910158,0.873312172 L141.910158,0.873312172 Z" id="Line-Copy-6"></path>
                        <path d="M68.429688,28.9843752 C72.9277884,28.9843752 76.5742192,25.3379444 76.5742192,20.839844 C76.5742192,16.3417436 72.9277884,12.6953127 68.429688,12.6953127 C63.9315876,12.6953127 60.2851567,16.3417436 60.2851567,20.839844 C60.2851567,25.3379444 63.9315876,28.9843752 68.429688,28.9843752 L68.429688,28.9843752 Z M68.429688,24.9843752 C66.1407266,24.9843752 64.2851567,23.1288054 64.2851567,20.839844 C64.2851567,18.5508826 66.1407266,16.6953127 68.429688,16.6953127 C70.7186494,16.6953127 72.5742192,18.5508826 72.5742192,20.839844 C72.5742192,23.1288054 70.7186494,24.9843752 68.429688,24.9843752 L68.429688,24.9843752 Z" id="Oval-7-Copy-9"></path>
                        <path d="M103.429688,51.9843752 C107.927788,51.9843752 111.574219,48.3379444 111.574219,43.839844 C111.574219,39.3417436 107.927788,35.6953127 103.429688,35.6953127 C98.9315876,35.6953127 95.2851567,39.3417436 95.2851567,43.839844 C95.2851567,48.3379444 98.9315876,51.9843752 103.429688,51.9843752 L103.429688,51.9843752 Z M103.429688,47.9843752 C101.140727,47.9843752 99.2851567,46.1288054 99.2851567,43.839844 C99.2851567,41.5508826 101.140727,39.6953127 103.429688,39.6953127 C105.718649,39.6953127 107.574219,41.5508826 107.574219,43.839844 C107.574219,46.1288054 105.718649,47.9843752 103.429688,47.9843752 L103.429688,47.9843752 Z" id="Oval-7-Copy-10"></path>
                    </g>
                </g>
                <g id="graph" mask="url(#mask-2)">
                    <g transform="translate(-5.382812, 25.773438)">
                        <path d="M34.1683351,32.8406589 L0.668335069,64.4070651 L4.09728893,68.0460589 L37.5972889,36.4796527 L34.1683351,32.8406589 L34.1683351,32.8406589 Z" id="Line" fill="#FFFFFF"></path>
                        <path d="M44.731888,37.0375081 L60.0834505,50.5375081 L63.3852975,46.7828035 L48.033735,33.2828035 L44.731888,37.0375081 L44.731888,37.0375081 Z" id="Line-Copy-3" fill="#FFFFFF"></path>
                        <path d="M105.452936,13.3099323 L70.452936,46.3099323 L73.8830004,49.9478793 L108.883,16.9478793 L105.452936,13.3099323 L105.452936,13.3099323 Z" id="Line-Copy-2" fill="#FFFFFF"></path>
                        <path d="M41.5273432,40.9492183 C46.301586,40.9492183 50.1718745,37.0789298 50.1718745,32.304687 C50.1718745,27.5304442 46.301586,23.6601558 41.5273432,23.6601558 C36.7531004,23.6601558 32.882812,27.5304442 32.882812,32.304687 C32.882812,37.0789298 36.7531004,40.9492183 41.5273432,40.9492183 L41.5273432,40.9492183 Z M41.5273432,35.9492183 C39.5145242,35.9492183 37.882812,34.317506 37.882812,32.304687 C37.882812,30.291868 39.5145242,28.6601558 41.5273432,28.6601558 C43.5401622,28.6601558 45.1718745,30.291868 45.1718745,32.304687 C45.1718745,34.317506 43.5401622,35.9492183 41.5273432,35.9492183 L41.5273432,35.9492183 Z" id="Oval-7" fill="#CD5633"></path>
                        <path d="M66.5273432,63.9492183 C71.301586,63.9492183 75.1718745,60.0789298 75.1718745,55.304687 C75.1718745,50.5304442 71.301586,46.6601558 66.5273432,46.6601558 C61.7531004,46.6601558 57.882812,50.5304442 57.882812,55.304687 C57.882812,60.0789298 61.7531004,63.9492183 66.5273432,63.9492183 L66.5273432,63.9492183 Z M66.5273432,58.9492183 C64.5145242,58.9492183 62.882812,57.317506 62.882812,55.304687 C62.882812,53.291868 64.5145242,51.6601558 66.5273432,51.6601558 C68.5401622,51.6601558 70.1718745,53.291868 70.1718745,55.304687 C70.1718745,57.317506 68.5401622,58.9492183 66.5273432,58.9492183 L66.5273432,58.9492183 Z" id="Oval-7-Copy" fill="#CD5633"></path>
                        <path d="M113.527343,19.9492183 C118.301586,19.9492183 122.171874,16.0789298 122.171874,11.304687 C122.171874,6.53044422 118.301586,2.66015575 113.527343,2.66015575 C108.7531,2.66015575 104.882812,6.53044422 104.882812,11.304687 C104.882812,16.0789298 108.7531,19.9492183 113.527343,19.9492183 L113.527343,19.9492183 Z M113.527343,14.9492183 C111.514524,14.9492183 109.882812,13.317506 109.882812,11.304687 C109.882812,9.29186797 111.514524,7.66015575 113.527343,7.66015575 C115.540162,7.66015575 117.171874,9.29186797 117.171874,11.304687 C117.171874,13.317506 115.540162,14.9492183 113.527343,14.9492183 L113.527343,14.9492183 Z" id="Oval-7-Copy-2" fill="#CD5633"></path>
                        <path d="M41.5273432,38.9492183 C46.301586,38.9492183 50.1718745,35.0789298 50.1718745,30.304687 C50.1718745,25.5304442 46.301586,21.6601558 41.5273432,21.6601558 C36.7531004,21.6601558 32.882812,25.5304442 32.882812,30.304687 C32.882812,35.0789298 36.7531004,38.9492183 41.5273432,38.9492183 L41.5273432,38.9492183 Z M41.5273432,33.9492183 C39.5145242,33.9492183 37.882812,32.317506 37.882812,30.304687 C37.882812,28.291868 39.5145242,26.6601558 41.5273432,26.6601558 C43.5401622,26.6601558 45.1718745,28.291868 45.1718745,30.304687 C45.1718745,32.317506 43.5401622,33.9492183 41.5273432,33.9492183 L41.5273432,33.9492183 Z" id="Oval-7-Copy-5" fill="#FFFFFF"></path>
                        <path d="M66.5273432,61.9492183 C71.301586,61.9492183 75.1718745,58.0789298 75.1718745,53.304687 C75.1718745,48.5304442 71.301586,44.6601558 66.5273432,44.6601558 C61.7531004,44.6601558 57.882812,48.5304442 57.882812,53.304687 C57.882812,58.0789298 61.7531004,61.9492183 66.5273432,61.9492183 L66.5273432,61.9492183 Z M66.5273432,56.9492183 C64.5145242,56.9492183 62.882812,55.317506 62.882812,53.304687 C62.882812,51.291868 64.5145242,49.6601558 66.5273432,49.6601558 C68.5401622,49.6601558 70.1718745,51.291868 70.1718745,53.304687 C70.1718745,55.317506 68.5401622,56.9492183 66.5273432,56.9492183 L66.5273432,56.9492183 Z" id="Oval-7-Copy-4" fill="#FFFFFF"></path>
                        <path d="M113.527343,17.9492183 C118.301586,17.9492183 122.171874,14.0789298 122.171874,9.304687 C122.171874,4.53044422 118.301586,0.66015575 113.527343,0.66015575 C108.7531,0.66015575 104.882812,4.53044422 104.882812,9.304687 C104.882812,14.0789298 108.7531,17.9492183 113.527343,17.9492183 L113.527343,17.9492183 Z M113.527343,12.9492183 C111.514524,12.9492183 109.882812,11.317506 109.882812,9.304687 C109.882812,7.29186797 111.514524,5.66015575 113.527343,5.66015575 C115.540162,5.66015575 117.171874,7.29186797 117.171874,9.304687 C117.171874,11.317506 115.540162,12.9492183 113.527343,12.9492183 L113.527343,12.9492183 Z" id="Oval-7-Copy-3" fill="#FFFFFF"></path>
                    </g>
                </g>
            </g>
        </g>
    </g>
</svg>